<svg width="37" height="38" viewBox="0 0 37 38" fill="none" xmlns="http://www.w3.org/2000/svg">
<g clip-path="url(#clip0_51_683)">
<path d="M18.5013 19C22.7585 19 26.2096 15.4556 26.2096 11.0834C26.2096 6.7111 22.7585 3.16669 18.5013 3.16669C14.2441 3.16669 10.793 6.7111 10.793 11.0834C10.793 15.4556 14.2441 19 18.5013 19Z" stroke="white" stroke-width="2"/>
<path d="M26.2091 22.1667H26.7517C27.8788 22.167 28.967 22.59 29.8118 23.3562C30.6567 24.1224 31.2 25.1791 31.3397 26.3277L31.9425 31.274C31.9968 31.7196 31.9581 32.172 31.8291 32.601C31.7001 33.0301 31.4837 33.4261 31.1943 33.7627C30.9048 34.0993 30.549 34.3689 30.1504 34.5534C29.7518 34.738 29.3196 34.8335 28.8823 34.8334H8.11916C7.68192 34.8335 7.24965 34.738 6.85106 34.5534C6.45246 34.3689 6.09665 34.0993 5.80724 33.7627C5.51783 33.4261 5.30144 33.0301 5.17243 32.601C5.04342 32.172 5.00473 31.7196 5.05895 31.274L5.6602 26.3277C5.80003 25.1785 6.3438 24.1214 7.18928 23.3552C8.03475 22.5889 9.12368 22.1662 10.2513 22.1667H10.7924" stroke="white" stroke-width="2" stroke-linecap="round" stroke-linejoin="round"/>
</g>
<defs>
<clipPath id="clip0_51_683">
<rect width="37" height="38" fill="white"/>
</clipPath>
</defs>
</svg>
