<svg width="45" height="45" viewBox="0 0 45 45" fill="none" xmlns="http://www.w3.org/2000/svg">
<path d="M4.16464 6.69928C4.36619 6.44423 4.61088 6.33331 4.83301 6.33331H40.833C41.0551 6.33331 41.2998 6.44423 41.5014 6.69928C41.7052 6.95724 41.833 7.32749 41.833 7.73146C41.833 8.13544 41.7052 8.50568 41.5014 8.76365C41.2998 9.01869 41.0551 9.12961 40.833 9.12961H4.83301C4.61088 9.12961 4.36619 9.01869 4.16464 8.76365C3.96079 8.50568 3.83301 8.13544 3.83301 7.73146C3.83301 7.32749 3.96079 6.95724 4.16464 6.69928ZM3.83301 22.9166C3.83301 22.5127 3.96079 22.1424 4.16464 21.8845C4.36619 21.6294 4.61088 21.5185 4.83301 21.5185H40.833C41.0551 21.5185 41.2998 21.6294 41.5014 21.8845C41.7052 22.1424 41.833 22.5127 41.833 22.9166C41.833 23.3206 41.7052 23.6909 41.5014 23.9488C41.2998 24.2039 41.0551 24.3148 40.833 24.3148H4.83301C4.61088 24.3148 4.36619 24.2039 4.16464 23.9488C3.96079 23.6909 3.83301 23.3206 3.83301 22.9166ZM3.83301 38.1018C3.83301 37.6979 3.96079 37.3276 4.16464 37.0696C4.36619 36.8146 4.61088 36.7037 4.83301 36.7037H40.833C41.0551 36.7037 41.2998 36.8146 41.5014 37.0696C41.7052 37.3276 41.833 37.6979 41.833 38.1018C41.833 38.5058 41.7052 38.8761 41.5014 39.134C41.2998 39.3891 41.0551 39.5 40.833 39.5H4.83301C4.61088 39.5 4.36619 39.3891 4.16464 39.134C3.96079 38.8761 3.83301 38.5058 3.83301 38.1018Z" fill="white" stroke="white"/>
</svg>
