<svg width="45" height="45" viewBox="0 0 45 45" fill="none" xmlns="http://www.w3.org/2000/svg">
<path d="M6.28906 7.18079C9.93709 7.18079 11.7136 9.65745 12.6237 12.6087M35.9137 32.5531H21.2954C17.0847 32.5531 15.0893 31.435 14.2732 27.6301M12.6237 12.6087C13.5854 15.7275 13.5795 19.3764 13.7922 21.1924C13.7922 23.9054 13.926 26.011 14.2732 27.6301M12.6237 12.6087H35.9137C38.8891 12.6087 39.717 13.3156 38.8891 17.6579C37.4691 25.1055 36.9745 27.7311 31.9034 27.6301H14.2732" stroke="white" stroke-width="2" stroke-linecap="round" stroke-linejoin="round"/>
<path d="M21.7429 37.8191C21.7429 39.1075 20.6843 40.1702 19.3558 40.1702C18.0274 40.1702 16.9688 39.1075 16.9688 37.8191C16.9688 36.5307 18.0274 35.4681 19.3558 35.4681C20.6843 35.4681 21.7429 36.5307 21.7429 37.8191Z" stroke="white" stroke-width="2"/>
<path d="M34.3211 37.8191C34.3211 39.1075 33.2624 40.1702 31.934 40.1702C30.6055 40.1702 29.5469 39.1075 29.5469 37.8191C29.5469 36.5307 30.6055 35.4681 31.934 35.4681C33.2624 35.4681 34.3211 36.5307 34.3211 37.8191Z" stroke="white" stroke-width="2"/>
</svg>
